<?xml version="1.0" standalone="no"?>
<!DOCTYPE svg PUBLIC "-//W3C//DTD SVG 1.1//EN" "http://www.w3.org/Graphics/SVG/1.1/DTD/svg11.dtd" >
<svg xmlns="http://www.w3.org/2000/svg">
<metadata>
This is a custom SVG webfont generated by Font Squirrel.
Copyright   : Typeface  FontSite Inc 19962008 All Rights Reserved wwwfontsitecom
Designer    : FontSitecom
Foundry URL : httpwwwfontsitecom
</metadata>
<defs>
<font id="webfontUNv5LEnN" horiz-adv-x="1161" >
<font-face units-per-em="2048" ascent="1542" descent="-506" />
<missing-glyph horiz-adv-x="512" />
<glyph unicode=" "  horiz-adv-x="512" />
<glyph unicode="&#x09;" horiz-adv-x="512" />
<glyph unicode="&#xa0;" horiz-adv-x="512" />
<glyph unicode="!" horiz-adv-x="565" d="M168 358l125 1008h192l-123 -1008h-194zM119 102q0 49 33.5 83t85.5 34q53 0 86.5 -34.5t33.5 -88.5q0 -49 -33.5 -82.5t-82.5 -33.5q-51 0 -87 35.5t-36 86.5z" />
<glyph unicode="&#x22;" horiz-adv-x="729" d="M494 817l28 549h219l-104 -549h-143zM176 817l31 549h219l-107 -549h-143z" />
<glyph unicode="#" horiz-adv-x="1105" d="M180 14l76 406h-203l19 153h215l47 252h-205l18 156h215l74 397l154 -20l-70 -377h232l75 397l154 -20l-72 -377h199l-18 -156h-207l-45 -252h194l-18 -155h-207l-78 -424l-154 20l74 404h-233l-80 -424zM444 573h234l45 252h-231z" />
<glyph unicode="$" d="M102 252l154 104q53 -109 119.5 -154.5t167.5 -45.5q102 0 163.5 59t61.5 160q0 78 -43 127t-180 127q-156 90 -216.5 172t-60.5 205q0 158 99.5 263t263.5 124l22 178h150l-23 -189q158 -41 256 -192l-133 -127q-92 150 -231 149q-84 0 -145.5 -58t-61.5 -140 q0 -70 44 -121t159 -115q166 -94 221 -164q78 -96 78 -239q0 -164 -96.5 -270.5t-262.5 -127.5l-26 -208h-150l25 213q-230 34 -355 270z" />
<glyph unicode="%" horiz-adv-x="1452" d="M225 16l973 1391l82 -57l-973 -1391zM371 670q-104 0 -166 83t-62 224q0 174 80 291.5t197 117.5q100 0 160.5 -82.5t60.5 -220.5q0 -180 -76.5 -296.5t-193.5 -116.5zM367 778q68 0 113.5 89t45.5 220q0 88 -28.5 139.5t-75.5 51.5q-68 0 -115 -91t-47 -220 q0 -88 29 -138.5t78 -50.5zM860 287q0 174 80 291.5t197 117.5q100 0 160.5 -83t60.5 -220q0 -180 -77 -296.5t-194 -116.5q-104 0 -165.5 83t-61.5 224zM977 276q0 -88 28.5 -138t77.5 -50q66 0 112 89t46 218q0 90 -27.5 141.5t-76.5 51.5q-66 0 -113 -91.5t-47 -220.5z " />
<glyph unicode="&#x26;" horiz-adv-x="1275" d="M98 379q0 174 160 317q37 31 160 113q-102 162 -103 289q0 129 86 208.5t224 79.5q143 0 233 -84.5t90 -218.5q0 -207 -270 -327l233 -336l158 145l127 -145l-176 -152l186 -268h-233l-103 147q-76 -57 -120 -86q-127 -82 -261 -81q-156 0 -273.5 119.5t-117.5 279.5z M584 897q102 51 144 96t42 105q0 57 -38 94t-95 37q-55 0 -94 -41t-39 -101q0 -65 80 -190zM291 379q0 -90 62.5 -154.5t150.5 -64.5q104 0 266 133l-258 373q-119 -74 -170 -140.5t-51 -146.5z" />
<glyph unicode="'" horiz-adv-x="411" d="M176 817l31 549h219l-107 -549h-143z" />
<glyph unicode="(" horiz-adv-x="616" d="M156 383q0 580 348 1126l139 -77q-170 -281 -247 -531t-77 -528q0 -336 119 -695l-147 -57q-135 348 -135 762z" />
<glyph unicode=")" horiz-adv-x="616" d="M-2 -301q170 283 247 532.5t77 526.5q0 332 -119 694l149 57q133 -350 133 -761q0 -582 -348 -1127z" />
<glyph unicode="*" d="M498 848l-127 117l174 168l-223 88l71 155l213 -114l17 241l170 -22l-43 -236l233 60l33 -168l-240 -33l129 -205l-149 -82l-105 217z" />
<glyph unicode="+" d="M526 229v385h-391v164h391v377h166v-377h391v-164h-391v-385h-166z" />
<glyph unicode="," horiz-adv-x="497" d="M-96 -203l280 539l152 -84l-311 -520z" />
<glyph unicode="-" horiz-adv-x="382" d="M-14 352l18 156h383l-18 -156h-383z" />
<glyph unicode="." horiz-adv-x="497" d="M86 102q0 49 33 83t82 34q51 0 88 -36t37 -87q0 -45 -37 -80.5t-84 -35.5q-49 0 -84 35.5t-35 86.5z" />
<glyph unicode="/" horiz-adv-x="866" d="M-61 -334l843 1847l138 -59l-844 -1851z" />
<glyph unicode="0" d="M559 -20q-201 0 -316.5 160.5t-115.5 439.5q0 340 154.5 573t380.5 233q193 0 306 -160.5t113 -430.5q0 -336 -151 -592q-61 -106 -158.5 -164.5t-212.5 -58.5zM551 162q74 0 138.5 50t103.5 138q92 205 92 453q0 188 -59.5 294.5t-163.5 106.5q-143 0 -240.5 -187.5 t-97.5 -461.5q0 -184 60.5 -288.5t166.5 -104.5z" />
<glyph unicode="1" d="M432 0l146 1178h-269l92 188h402l-168 -1366h-203z" />
<glyph unicode="2" d="M53 0l545 600q127 139 156.5 175t52.5 79q33 61 33 131q0 102 -59.5 159.5t-164.5 57.5q-115 0 -173 -66.5t-70 -215.5h-193q14 201 84 301q115 166 359 165q188 0 300.5 -109.5t112.5 -289.5q0 -117 -47 -203t-203 -254l-315 -342h490l-25 -188h-883z" />
<glyph unicode="3" d="M111 340h188q29 -178 223 -178q113 0 182.5 67.5t69.5 176.5q0 131 -104 180q-55 29 -168 30l22 181q18 -2 49 -2q102 0 160 60t58 169q0 82 -49.5 130t-131.5 48q-94 0 -143 -53t-59 -168h-179q12 180 84 270q109 135 318 135q164 0 260 -94t96 -256q0 -121 -53 -198.5 t-168 -128.5q205 -80 205 -314q0 -186 -124 -300.5t-325 -114.5q-178 0 -285.5 94t-125.5 266z" />
<glyph unicode="4" d="M29 252l993 1261l-133 -1087h127l-23 -174h-127l-32 -252h-201l33 252h-637zM377 426h309l59 481z" />
<glyph unicode="5" d="M57 238l142 114q78 -106 146.5 -148t164.5 -42q131 0 209 87t78 232q0 127 -75 202t-202 75t-295 -96l228 704h565l-23 -188h-420l-90 -275q57 12 109 12q186 0 292.5 -117.5t106.5 -322.5q0 -221 -133 -358t-348 -137q-152 0 -261.5 62.5t-193.5 195.5z" />
<glyph unicode="6" d="M106 423.5q0 190.5 177 428.5l426 571l151 -118l-309 -418q70 14 115 14q174 0 281.5 -112.5t107.5 -294.5q0 -215 -145.5 -364.5t-354.5 -149.5q-193 0 -321 126.5t-128 317zM303 416q0 -117 68.5 -185.5t185.5 -68.5q127 0 214 90t87 221q0 115 -70.5 187.5 t-181.5 72.5q-125 0 -214 -93t-89 -224z" />
<glyph unicode="7" d="M117 74l747 1104h-659l24 188h985l-935 -1391z" />
<glyph unicode="8" d="M143 381q0 260 263 364q-158 109 -158 281q0 160 111.5 260t291.5 100q170 0 273.5 -98t103.5 -260q0 -106 -47 -176t-156 -125q72 -41 109 -86q82 -102 82 -250q0 -178 -123 -294.5t-311 -116.5q-195 0 -317 111.5t-122 289.5zM631 834q88 0 144 53t56 135t-52 132 t-136 50q-86 0 -142.5 -54t-56.5 -138q0 -78 52.5 -128t134.5 -50zM340 387q0 -98 66.5 -161.5t171.5 -63.5q106 0 173.5 68.5t67.5 177.5q0 98 -65.5 159.5t-167.5 61.5q-109 0 -177.5 -68t-68.5 -174z" />
<glyph unicode="9" d="M334 61l309 418q-47 -14 -96 -14q-184 0 -295 112.5t-111 299.5q0 213 146.5 361t359.5 148q188 0 314 -128t126 -318q0 -188 -176 -426l-426 -571zM590 633q125 0 213 90t88 219q0 115 -70.5 188.5t-181.5 73.5q-127 0 -214 -93t-87 -230q0 -113 68.5 -180.5 t183.5 -67.5z" />
<glyph unicode=":" horiz-adv-x="497" d="M283 621q-49 0 -84 35.5t-35 86.5q0 49 32.5 83t82.5 34q51 0 87.5 -36t36.5 -87q0 -45 -36.5 -80.5t-83.5 -35.5zM86 102q0 49 33 83t82 34q51 0 88 -36t37 -87q0 -45 -37 -80.5t-84 -35.5q-49 0 -84 35.5t-35 86.5z" />
<glyph unicode=";" horiz-adv-x="497" d="M274 621q-49 0 -83.5 35.5t-34.5 86.5q0 49 32.5 83t81.5 34q51 0 88 -36t37 -87q0 -45 -37 -80.5t-84 -35.5zM-96 -203l280 539l152 -84l-311 -520z" />
<glyph unicode="&#x3c;" horiz-adv-x="1024" d="M92 606v174l887 432v-202l-670 -318l670 -317v-203z" />
<glyph unicode="=" d="M135 756v151h948v-151h-948zM135 483v152h948v-152h-948z" />
<glyph unicode="&#x3e;" horiz-adv-x="1024" d="M94 172v203l670 317l-670 318v202l887 -434v-174z" />
<glyph unicode="?" horiz-adv-x="878" d="M481 315q-133 0 -221 82t-88 207q0 111 76 201q66 78 219 137q115 45 150.5 76t35.5 82q0 55 -39 93t-94 38q-86 0 -127 -78q-23 -43 -22 -129h-176q2 162 63 242q92 121 266 120q143 0 230.5 -78.5t87.5 -209.5q0 -104 -64 -180q-53 -59 -182 -109q-133 -51 -183.5 -96 t-50.5 -115q0 -53 34 -87t89 -34q106 0 117 139h184q-14 -129 -63 -192q-86 -109 -242 -109zM279 98.5q0 51.5 33.5 85t84.5 33.5q49 0 84 -36t35 -85t-33.5 -82.5t-81.5 -33.5q-53 0 -87.5 33.5t-34.5 85z" />
<glyph unicode="@" horiz-adv-x="1583" d="M473 72q-162 92 -256 256t-94 356q0 299 212 503t521 204q285 0 477.5 -175.5t192.5 -435.5q0 -199 -104.5 -346t-245.5 -147q-113 0 -156 108q-109 -111 -240 -110q-147 0 -243.5 104.5t-96.5 265.5q0 172 107.5 287t269.5 115q145 0 240 -115l10 98h131l-55 -465 q-8 -70 -8 -94q0 -70 59 -69q80 0 143.5 109.5t63.5 248.5q0 219 -153.5 360.5t-389.5 141.5q-248 0 -417 -170t-169 -418q0 -158 75 -293t206 -211t321 -76q207 0 406 93q6 2 16.5 8t24.5 12l47 -123q-240 -119 -491 -119q-236 1 -404 97zM618 647q0 -92 48.5 -152.5 t119.5 -60.5q94 0 167 80t73 184q0 84 -56.5 139.5t-142.5 55.5q-90 0 -149.5 -70t-59.5 -176z" />
<glyph unicode="A" horiz-adv-x="1277" d="M-2 0l756 1462l471 -1462h-211l-99 322h-530l-166 -322h-221zM473 496h385l-147 485z" />
<glyph unicode="B" horiz-adv-x="1054" d="M106 0l168 1366h252q113 0 179.5 -20.5t115.5 -69.5q102 -98 103 -256q0 -209 -199 -315q98 -25 152 -70q90 -80 90 -232q0 -113 -51.5 -208t-139.5 -144q-94 -51 -309 -51h-361zM403 768h58q141 0 198 66q61 68 62 176q0 88 -48 128t-151 40h-69zM332 188h135 q152 0 209 37q88 59 88 193q0 100 -59.5 144t-198.5 44h-123z" />
<glyph unicode="C" horiz-adv-x="1249" d="M119 659q0 315 192.5 524.5t485.5 209.5q125 0 231.5 -34t228.5 -116l-26 -221q-178 180 -424 180q-217 0 -351 -153.5t-134 -397.5q0 -229 130 -358t361 -129q197 0 346 119l-31 -240q-193 -70 -350 -70q-297 0 -478 189.5t-181 496.5z" />
<glyph unicode="D" horiz-adv-x="1296" d="M106 0l168 1366h277q158 0 242 -15.5t157 -58.5q133 -76 210 -230.5t77 -344.5q0 -223 -102.5 -403.5t-272.5 -256.5q-125 -57 -409 -57h-347zM332 188h153q158 0 245 27t153 94q152 158 151 416q0 154 -61.5 264.5t-169.5 155.5q-80 33 -236 33h-114z" />
<glyph unicode="E" horiz-adv-x="962" d="M106 0l168 1366h703l-23 -188h-501l-43 -355h501l-22 -174h-500l-57 -461h502l-25 -188h-703z" />
<glyph unicode="F" horiz-adv-x="892" d="M106 0l168 1366h674l-22 -188h-473l-43 -353h473l-21 -174h-473l-80 -651h-203z" />
<glyph unicode="G" horiz-adv-x="1454" d="M117 655q0 319 197.5 528.5t500.5 209.5q338 0 561 -275l-133 -135q-168 219 -432 219q-217 0 -354.5 -151.5t-137.5 -391.5q0 -219 129.5 -357t333.5 -138q145 0 246.5 80t130.5 217h-338l23 174h547q-23 -231 -113 -381q-172 -281 -508 -281q-285 0 -469 192.5 t-184 489.5z" />
<glyph unicode="H" horiz-adv-x="1296" d="M106 0l168 1366h203l-65 -537h563l65 537h203l-168 -1366h-203l82 666h-563l-82 -666h-203z" />
<glyph unicode="I" horiz-adv-x="530" d="M106 0l168 1366h203l-168 -1366h-203z" />
<glyph unicode="J" horiz-adv-x="772" d="M-31 104l105 150q92 -90 170 -90q74 0 108.5 74.5t61.5 287.5l102 840h203l-121 -983q-27 -229 -111 -317q-82 -92 -235 -93q-158 0 -283 131z" />
<glyph unicode="K" horiz-adv-x="1220" d="M106 0l168 1366h203l-71 -580l550 580h256l-637 -635l574 -731h-244l-514 666l-82 -666h-203z" />
<glyph unicode="L" horiz-adv-x="780" d="M106 0l168 1366h203l-145 -1178h387l-25 -188h-588z" />
<glyph unicode="M" horiz-adv-x="1759" d="M51 0l473 1462l344 -1116l625 1147l113 -1493h-193l-61 870l-529 -966l-293 966l-272 -870h-207z" />
<glyph unicode="N" horiz-adv-x="1488" d="M106 0l179 1440l827 -1057l121 983h203l-181 -1460l-827 1059l-119 -965h-203z" />
<glyph unicode="O" horiz-adv-x="1605" d="M119 678q0 309 205.5 512t519.5 203q315 0 507.5 -187.5t192.5 -494.5q0 -317 -208 -527.5t-523 -210.5q-307 0 -500.5 197t-193.5 508zM322 676q0 -221 140 -366.5t355 -145.5q225 0 373.5 155.5t148.5 391.5q0 225 -133 358t-356 133q-225 0 -376.5 -150.5 t-151.5 -375.5z" />
<glyph unicode="P" horiz-adv-x="1009" d="M106 0l168 1366h277q182 0 276 -59q78 -49 122 -137.5t44 -192.5q0 -172 -106 -289q-121 -135 -361 -135h-149l-68 -553h-203zM399 731h131q129 0 191 64q70 70 70 186q0 111 -86 166q-53 31 -164 31h-88z" />
<glyph unicode="Q" horiz-adv-x="1607" d="M119 672q0 313 206.5 518t522.5 205q305 0 497.5 -194.5t192.5 -502.5q0 -336 -256 -559l182 -194h-229l-94 100q-145 -72 -328 -72q-307 0 -500.5 195t-193.5 504zM322 672q0 -221 140 -365.5t355 -144.5q96 0 189 28l-256 279h223l184 -195q178 156 178 433 q0 223 -132 360t-345 137q-233 0 -384.5 -150.5t-151.5 -381.5z" />
<glyph unicode="R" horiz-adv-x="1079" d="M106 0l168 1366h269q219 0 315 -82q131 -111 131 -307q0 -184 -121 -295q-74 -70 -221 -107l342 -575h-215l-323 561h-74l-68 -561h-203zM399 739h95q166 0 229 70t63 170q0 133 -104 178q-51 20 -143 21h-86z" />
<glyph unicode="S" horiz-adv-x="1011" d="M188 78q-66 53 -133 174l154 104q63 -109 123.5 -150.5t154.5 -41.5q109 0 169.5 58.5t60.5 160.5q0 72 -44 121t-177 129q-156 90 -215.5 172t-59.5 207q0 164 116 273.5t290 109.5q113 0 195.5 -46t168.5 -157l-135 -129q-53 78 -104.5 109.5t-118.5 31.5 q-90 0 -149.5 -56t-59.5 -140q0 -66 42 -114t159 -118q174 -102 234.5 -185t60.5 -220q0 -176 -117 -287t-303 -111q-185 1 -312 105z" />
<glyph unicode="T" horiz-adv-x="868" d="M283 0l143 1178h-326l23 188h842l-23 -188h-313l-146 -1178h-200z" />
<glyph unicode="U" horiz-adv-x="1347" d="M168 422q0 82 12 180l94 764h201l-96 -791q-8 -57 -8 -118q0 -137 75.5 -215t208.5 -78q184 0 271 153q47 84 69 269l97 780h202l-100 -809q-35 -270 -125 -391q-147 -193 -410 -193q-211 0 -351 128t-140 321z" />
<glyph unicode="V" horiz-adv-x="1210" d="M530 -61l-430 1427h205l283 -952l502 952h217z" />
<glyph unicode="W" horiz-adv-x="1884" d="M520 -74l-420 1440h207l256 -934l479 981l275 -956l446 909h217l-712 -1425l-273 956z" />
<glyph unicode="X" horiz-adv-x="1107" d="M-43 0l518 731l-299 635h215l211 -469l320 469h237l-461 -655l340 -711h-213l-254 543l-376 -543h-238z" />
<glyph unicode="Y" horiz-adv-x="1056" d="M369 0l77 625l-354 741h217l252 -543l359 543h233l-506 -754l-76 -612h-202z" />
<glyph unicode="Z" horiz-adv-x="1128" d="M10 0l807 1178h-573l22 188h903l-804 -1178h673l-22 -188h-1006z" />
<glyph unicode="[" horiz-adv-x="634" d="M244 -213h245l-18 -149h-410l228 1855h409l-18 -150h-246z" />
<glyph unicode="\" horiz-adv-x="866" d="M580 -397l-387 1878l149 32l387 -1875z" />
<glyph unicode="]" horiz-adv-x="634" d="M-23 -213h246l191 1556h-246l18 150h410l-227 -1855h-410z" />
<glyph unicode="^" horiz-adv-x="1024" d="M55 719l346 653h269l346 -653h-217l-264 489l-263 -489h-217z" />
<glyph unicode="_" horiz-adv-x="1024" d="M25 -115h1024v-186h-1024v186z" />
<glyph unicode="`" horiz-adv-x="1024" d="M643 965l-217 254l143 96l168 -289z" />
<glyph unicode="a" horiz-adv-x="1089" d="M193 84q-115 113 -115 299q0 207 120.5 339t309.5 132q90 0 153.5 -29.5t126.5 -99.5l15 109h194l-102 -834h-195l11 90q-70 -61 -127.5 -85.5t-130.5 -24.5q-151 0 -260 104zM274 393q0 -111 62.5 -180.5t159.5 -69.5q109 0 186.5 88t77.5 209q0 111 -63.5 180.5 t-164.5 69.5q-109 0 -183.5 -86t-74.5 -211z" />
<glyph unicode="b" horiz-adv-x="1110" d="M80 0l184 1493h195l-90 -735q80 55 135 75.5t127 20.5q170 0 280.5 -116.5t110.5 -295.5q0 -195 -126 -328.5t-308 -133.5q-172 0 -299 133l-15 -113h-194zM319 391q0 -109 66 -178.5t168 -69.5q113 0 192.5 86t79.5 207q0 113 -66.5 183.5t-172.5 70.5q-115 0 -191 -85 t-76 -214z" />
<glyph unicode="c" horiz-adv-x="829" d="M80 403q0 195 124 326t306 131q152 0 287 -106l-23 -199q-59 76 -115.5 108.5t-128.5 32.5q-111 0 -182.5 -82t-71.5 -211q0 -119 68 -192.5t176 -73.5q102 0 213 88l-24 -205q-121 -47 -217 -47q-182 0 -297 120t-115 310z" />
<glyph unicode="d" horiz-adv-x="1126" d="M82 397q0 197 122 327t306 130q92 0 159.5 -33t141.5 -114l96 786h195l-182 -1493h-197l12 90q-74 -66 -126 -88t-130 -22q-174 0 -285.5 117.5t-111.5 299.5zM279 387q0 -111 64.5 -177.5t170.5 -66.5q123 0 197 101q70 96 69 209q0 106 -65.5 171.5t-171.5 65.5 q-115 0 -189.5 -86t-74.5 -217z" />
<glyph unicode="e" horiz-adv-x="1015" d="M80 393q0 201 127 334t317 133q186 0 297 -121q105 -114 105 -302v-21l-2 -70h-645q4 -96 65.5 -152.5t163.5 -56.5q137 0 209 103l145 -82q-74 -100 -155.5 -142.5t-202.5 -42.5q-193 0 -308.5 115t-115.5 305zM291 504h436q-31 193 -213 192q-174 1 -223 -192z" />
<glyph unicode="f" horiz-adv-x="555" d="M92 0l80 651h-127l23 183h127l45 372q20 158 86 224q70 66 174 65q70 0 166 -45l-21 -172q-55 45 -102 45q-53 0 -78 -37t-37 -135l-39 -317h178l-22 -183h-178l-80 -651h-195z" />
<glyph unicode="g" horiz-adv-x="1110" d="M39 -84h188q6 -90 35 -137q55 -86 191 -86q121 0 188 67q55 55 74 199l14 117q-125 -96 -260 -96q-170 0 -280.5 116.5t-110.5 296.5q0 197 129 329t323 132q88 0 149.5 -26.5t131.5 -96.5l12 103h195l-103 -842q-27 -231 -110 -326q-119 -137 -338 -137t-342 127 q-47 49 -66.5 106.5t-19.5 153.5zM274 393q0 -113 66 -181.5t174 -68.5q121 0 200 84t79 211q0 113 -69 182.5t-181 69.5q-115 0 -192 -85t-77 -212z" />
<glyph unicode="h" horiz-adv-x="999" d="M80 0l184 1493h195l-90 -731q117 92 237.5 92t195.5 -64.5t75 -166.5q0 -43 -11 -129l-59 -494h-197l64 506q4 27 4 74q0 53 -34 81.5t-97 28.5q-80 0 -141 -57q-59 -57 -76 -197l-56 -436h-194z" />
<glyph unicode="i" horiz-adv-x="468" d="M334 1126q-43 0 -75 32t-32 77q0 43 31 73.5t74 30.5t75.5 -32.5t32.5 -75.5t-31.5 -74t-74.5 -31zM80 0l102 834h195l-103 -834h-194z" />
<glyph unicode="j" horiz-adv-x="477" d="M330 1126q-43 0 -75 32t-32 77q0 43 31 73.5t74 30.5q45 0 76.5 -32.5t31.5 -75.5t-31.5 -74t-74.5 -31zM20 -477l162 1311h195l-162 -1311h-195z" />
<glyph unicode="k" horiz-adv-x="933" d="M80 0l184 1493h195l-121 -983l350 324h260l-436 -381l352 -453h-237l-303 397l-50 -397h-194z" />
<glyph unicode="l" horiz-adv-x="468" d="M80 0l184 1493h195l-185 -1493h-194z" />
<glyph unicode="m" horiz-adv-x="1437" d="M80 0l102 834h203l-10 -78q98 100 229 100q78 0 121 -29.5t76 -105.5q68 72 128 102.5t140 30.5q121 0 184.5 -58.5t63.5 -168.5q0 -27 -17 -168l-55 -459h-196l59 481q4 31 10 101q0 5 1 10q0 98 -111 98q-82 0 -134 -55q-41 -47 -55 -170l-57 -465h-197l62 494 q8 74 8 92q0 104 -113 104q-86 0 -135 -63q-43 -57 -55 -162l-58 -465h-194z" />
<glyph unicode="n" horiz-adv-x="997" d="M80 0l102 834h195l-8 -78q115 98 233 98q135 0 213 -84q55 -61 55 -170q0 -49 -12 -154l-55 -446h-195l60 489q8 70 8 89q0 113 -123 112q-84 0 -141 -57q-39 -39 -57.5 -87t-30.5 -145l-50 -401h-194z" />
<glyph unicode="o" horiz-adv-x="1089" d="M82 410q0 193 134 321.5t335 128.5q199 0 323.5 -122t124.5 -314q0 -190 -132 -320.5t-324 -130.5q-201 0 -331 123.5t-130 313.5zM279 414q0 -123 72.5 -200t187 -77t189.5 84t75 213q0 119 -69.5 190.5t-182.5 71.5q-119 0 -195.5 -79.5t-76.5 -202.5z" />
<glyph unicode="p" horiz-adv-x="1110" d="M289 119l-74 -596h-195l162 1311h195l-10 -89q125 109 266 109q168 0 277.5 -116.5t109.5 -293.5q0 -197 -127 -330.5t-311 -133.5q-92 0 -156.5 30.5t-136.5 108.5zM322 389q0 -109 66.5 -177.5t172.5 -68.5q111 0 186.5 85t75.5 210q0 111 -63.5 181.5t-161.5 70.5 q-119 0 -197.5 -86t-78.5 -215z" />
<glyph unicode="q" horiz-adv-x="1114" d="M78 395q0 195 127 327t313 132q96 0 159.5 -30.5t133.5 -108.5l14 119h197l-162 -1311h-194l67 553q-68 -55 -125 -75.5t-137 -20.5q-172 0 -282.5 116.5t-110.5 298.5zM274 397q0 -111 68 -182.5t174 -71.5q121 0 193 90q76 92 75 205q0 109 -67.5 180.5t-169.5 71.5 q-115 0 -194 -85t-79 -208z" />
<glyph unicode="r" horiz-adv-x="692" d="M80 0l102 834h195l-8 -72q57 53 100 73.5t100 20.5q88 0 160 -65l-125 -160q-53 47 -106 47q-66 0 -105 -49q-49 -59 -67 -213l-52 -416h-194z" />
<glyph unicode="s" horiz-adv-x="731" d="M35 139l127 90q80 -94 170 -94q47 0 78.5 26.5t31.5 67.5q0 39 -25.5 62.5t-127.5 79.5q-92 51 -129 102t-37 127q0 113 84 187.5t211 74.5q139 0 260 -121l-111 -110q-78 72 -143 71q-45 0 -75 -25.5t-30 -62.5q0 -35 25 -59.5t105 -69.5q111 -61 150.5 -114.5 t39.5 -134.5q0 -119 -83 -191t-218 -72q-100 0 -170 38t-133 128z" />
<glyph unicode="t" horiz-adv-x="530" d="M92 0l80 651h-111l23 183h111l47 385h194l-47 -385h180l-22 -183h-180l-80 -651h-195z" />
<glyph unicode="u" horiz-adv-x="991" d="M117 272q0 51 8 111l55 451h197l-58 -467q-8 -70 -8 -91q0 -133 156 -133q82 0 122 44t54 153l62 494h194l-59 -486q-14 -113 -36 -170t-69 -100q-102 -98 -280 -98q-154 0 -246 79.5t-92 212.5z" />
<glyph unicode="v" horiz-adv-x="882" d="M342 -109l-297 943h203l143 -533l299 533h223z" />
<glyph unicode="w" horiz-adv-x="1316" d="M348 -88l-303 922h207l145 -508l297 530l160 -530l272 508h224l-537 -922l-168 539z" />
<glyph unicode="x" horiz-adv-x="980" d="M-41 0l424 463l-248 371h223l148 -240l199 240h249l-350 -385l301 -449h-227l-197 317l-270 -317h-252z" />
<glyph unicode="y" horiz-adv-x="954" d="M344 104l-299 730h209l207 -533l301 533h223l-754 -1311h-223z" />
<glyph unicode="z" horiz-adv-x="937" d="M-16 0l559 651h-418l22 183h785l-561 -652h491l-22 -182h-856z" />
<glyph unicode="{" horiz-adv-x="647" d="M137 -80l53 436q-2 109 -98 131l21 170q63 14 94 53.5t41 116.5l49 394q18 152 82.5 220t187.5 68q37 0 64 -2q29 0 51 -2l-20 -178q-10 2 -25 2q-96 0 -123 -55q-12 -18 -25 -107l-45 -354q-14 -109 -44.5 -158t-108.5 -90q100 -68 100 -176v-20l-49 -402q-6 -41 -6 -78 q0 -41 16 -57q27 -29 121 -29l-20 -178l-111 -4q-123 -4 -176 68q-35 49 -35 147q0 45 6 84z" />
<glyph unicode="|" horiz-adv-x="1024" d="M434 -342v1708h205v-1708h-205z" />
<glyph unicode="}" horiz-adv-x="647" d="M184 -37l43 354q14 106 46 156.5t108 91.5q-100 68 -100 176v21l51 401q4 27 4 78t-26.5 67.5t-110.5 18.5l22 178q23 2 49 2q33 2 60 2q113 0 162 -50t49 -163q0 -47 -6 -86l-54 -436v-10q0 -94 99 -121l-21 -170q-119 -25 -135 -168l-49 -395q-18 -152 -84 -222.5 t-187 -66.5l-114 4l22 178l25 -2q90 -6 123 56q12 24 24 106z" />
<glyph unicode="~" horiz-adv-x="1366" d="M317 1169q-37 0 -104 78q70 145 133.5 201.5t159.5 56.5q86 0 223 -61q127 -55 189 -55q49 0 92 28.5t63 73.5q10 23 25 22q37 0 106 -73q-68 -135 -138.5 -192.5t-168.5 -57.5q-78 0 -229 70q-111 49 -181 49q-41 0 -87 -36t-60 -81q-9 -23 -23 -23z" />
<glyph unicode="&#xa1;" horiz-adv-x="565" d="M342 831q-53 0 -87 35t-34 88q0 49 34 83t83 34q51 0 87 -36t36 -87q0 -49 -34 -83t-85 -34zM92 -313l123 1005h195l-125 -1005h-193z" />
<glyph unicode="&#xa2;" d="M485 20l31 250q-137 43 -211 149.5t-74 262.5q0 186 112 317t280 142l24 205h152l-29 -220q82 -23 172 -94l-24 -196q-59 84 -114.5 117.5t-129.5 33.5q-113 0 -186.5 -86t-73.5 -217q0 -121 68.5 -198.5t177 -77.5t219.5 98l-27 -205q-104 -45 -188 -47l-29 -234h-150z " />
<glyph unicode="&#xa3;" d="M41 104q104 133 231 156q47 109 47 197q0 23 -6 69h-196l16 142h162q-23 180 -23 245q0 207 126 340t323 133q238 0 338 -188q49 -92 65 -250l-180 -57q-23 317 -227 317q-113 0 -180.5 -82t-67.5 -219q0 -106 27 -233h327l-16 -142h-301q2 -20 2 -49q0 -88 -45 -223 q51 -14 67 -20q2 -2 11.5 -4.5t19.5 -6.5t21 -10l39 -18q88 -41 165 -41q109 0 209 100l92 -156q-141 -125 -299 -124q-72 0 -192 40q-180 63 -241.5 63.5t-106.5 -25t-101 -93.5z" />
<glyph unicode="&#xa4;" horiz-adv-x="1366" d="M225 154l-110 112l200 203q-98 135 -98 287q0 150 98 284l-204 203l112 115l203 -205q145 98 292.5 98t287.5 -96l202 201l111 -113l-199 -201q98 -145 99 -288q0 -141 -97 -285l203 -203l-113 -112l-202 202q-137 -98 -291 -98q-141 0 -291 96zM719 440q127 0 219 91.5 t92 218.5q0 133 -91 226t-222 93q-129 0 -220 -92t-91 -223q0 -129 92 -221.5t221 -92.5z" />
<glyph unicode="&#xa5;" d="M438 0l60 483h-377l16 138l377 2l-63 149h-295l18 137h213l-199 457h218l223 -543l332 543h233l-291 -457h193l-17 -137h-262l-96 -151h340l-17 -138h-346l-59 -483h-201z" />
<glyph unicode="&#xa6;" horiz-adv-x="1024" d="M434 670v696h205v-696h-205zM434 313h205v-655h-205v655z" />
<glyph unicode="&#xa7;" d="M125 41h182v-41q0 -102 53.5 -159.5t149.5 -57.5q92 0 148.5 51t56.5 133q0 72 -51 123q-31 29 -57.5 42t-157.5 71q-248 106 -248 338q0 233 225 336q-76 59 -107.5 119.5t-31.5 146.5q0 162 110.5 265t282.5 103q111 0 200 -49t138 -137q53 -94 55 -248h-182v45 q0 94 -58.5 152.5t-154.5 58.5q-84 0 -143.5 -56t-59.5 -138q0 -66 42 -111t142 -84q152 -61 220 -117q119 -100 118 -268q0 -221 -235 -326q70 -63 94 -94q55 -72 55 -180q0 -150 -109.5 -245t-283.5 -95q-125 0 -217 48t-135 136q-27 55 -34 98.5t-7 139.5zM395 555 q0 -82 57.5 -135t143.5 -53t144.5 53t58.5 135t-57.5 136t-147.5 54q-84 0 -141.5 -54t-57.5 -136z" />
<glyph unicode="&#xa8;" horiz-adv-x="1024" d="M748 1016q-43 0 -75 31.5t-32 76.5q0 43 30.5 74t73.5 31q45 0 77 -33t32 -76t-31.5 -73.5t-74.5 -30.5zM430 1016q-43 0 -74.5 31.5t-31.5 76.5q0 43 30.5 74t73.5 31q45 0 77 -33t32 -76t-32 -73.5t-75 -30.5z" />
<glyph unicode="&#xa9;" horiz-adv-x="1501" d="M70 686q0 289 207.5 499t494.5 210q299 0 507 -207t208 -504q0 -295 -207 -504t-500 -209q-295 0 -502.5 209t-207.5 506zM184 684q0 -252 174 -431t420 -179q248 0 421 178t173 432q0 162 -84 309.5t-217 218.5q-145 78 -297 78q-242 0 -416 -179t-174 -427zM365 670 q0 188 122.5 313t309.5 125q145 0 299 -92l-21 -166q-47 43 -67 59q-94 61 -209 62q-125 0 -203 -84t-78 -219q0 -131 78 -203t217 -72q119 0 203 68q2 0 6 3t10 7t10 8l-22 -176q-123 -47 -232 -47q-188 0 -305.5 115t-117.5 299z" />
<glyph unicode="&#xaa;" horiz-adv-x="696" d="M385 844q-109 0 -176.5 69.5t-67.5 180.5q0 125 79 204.5t200 79.5q98 0 164 -59l6 47h149l-63 -512h-148v33q-75 -43 -143 -43zM418 965q61 0 104 46t43 111q0 57 -36.5 95t-94.5 38q-61 0 -102 -45t-41 -110q0 -59 35 -97t92 -38z" />
<glyph unicode="&#xab;" horiz-adv-x="823" d="M358 428l326 399l90 -82l-264 -319l188 -305l-106 -66zM297 55l-234 375l322 395l94 -80l-266 -319l186 -307z" />
<glyph unicode="&#xac;" horiz-adv-x="1024" d="M92 354v191h887v-545h-205v354h-682z" />
<glyph unicode="&#xad;" horiz-adv-x="382" d="M-14 352l18 156h383l-18 -156h-383z" />
<glyph unicode="&#xae;" horiz-adv-x="1501" d="M70 686q0 289 207.5 499t494.5 210q299 0 507 -207t208 -504q0 -295 -207 -504t-500 -209q-295 0 -502.5 209t-207.5 506zM184 684q0 -252 174 -431t420 -179q248 0 421 178t173 432q0 162 -84 309.5t-217 218.5q-145 78 -297 78q-242 0 -416 -179t-174 -427zM475 272 l100 820h179q141 0 207 -52q86 -70 86 -186q0 -88 -50.5 -152.5t-140.5 -87.5l-12 -2l219 -340h-168l-203 326h-24l-41 -326h-152zM684 729h43q88 0 123 27q43 37 43 94q0 104 -143 104h-39z" />
<glyph unicode="&#xaf;" horiz-adv-x="1024" d="M293 1044l16 142h568l-17 -142h-567z" />
<glyph unicode="&#xb0;" d="M661.5 840q-112.5 0 -193.5 79.5t-81 194.5q0 113 81 192.5t196 79.5q111 0 190.5 -80.5t79.5 -191.5q0 -113 -80 -193.5t-192.5 -80.5zM661.5 963q59.5 0 101.5 44t42 105q0 57 -42 97t-101 40q-61 0 -103.5 -40t-42.5 -97q0 -61 43 -105t102.5 -44z" />
<glyph unicode="&#xb1;" d="M526 229v385h-391v164h391v377h166v-377h391v-164h-391v-385h-166zM135 0v164h948v-164h-948z" />
<glyph unicode="&#xb2;" horiz-adv-x="792" d="M100 547l346 364q104 111 126 142.5t22 79.5q0 57 -36 89.5t-97 32.5q-70 0 -103.5 -37.5t-42.5 -127.5h-131q8 127 54 188q74 100 227 100q119 0 191.5 -66.5t72.5 -174.5q0 -70 -28.5 -121t-127.5 -154l-184 -190h297l-16 -125h-570z" />
<glyph unicode="&#xb3;" horiz-adv-x="792" d="M406 532q-117 0 -184.5 58.5t-80.5 169.5h129q18 -106 138 -107q66 0 106.5 38t40.5 97q0 121 -172 121l14 121q14 -2 39 -2q59 0 93 34t34 95q0 47 -28.5 73.5t-79.5 26.5q-57 0 -85 -30.5t-32 -100.5h-125q12 252 256 252q104 0 166.5 -58t62.5 -155q0 -139 -125 -194 q117 -47 117 -187q0 -113 -78.5 -182.5t-205.5 -69.5z" />
<glyph unicode="&#xb4;" horiz-adv-x="1024" d="M604 965l-100 59l237 291l146 -92z" />
<glyph unicode="&#xb5;" horiz-adv-x="991" d="M256 35l-41 -512h-195l162 1311h195l-58 -467q-8 -74 -8 -91q0 -133 156 -133q82 0 122 44t54 153l62 494h194l-59 -486q-14 -115 -36 -171t-67 -99q-104 -98 -272 -98q-113 0 -209 55z" />
<glyph unicode="&#xb6;" d="M309 -195l109 881q-135 -2 -209 79t-74 230q0 195 125 291q100 80 305 80h633l-137 -190h-53l-170 -1371h-189l168 1371h-151l-168 -1371h-189z" />
<glyph unicode="&#xb7;" horiz-adv-x="495" d="M246 311q-49 0 -84 36t-35 87q0 49 33 83t82 34q51 0 88 -36t37 -87q0 -45 -37 -81t-84 -36z" />
<glyph unicode="&#xb8;" horiz-adv-x="1024" d="M268 -367l176 271l166 -86l-237 -244z" />
<glyph unicode="&#xb9;" horiz-adv-x="792" d="M344 547l86 694h-170l64 125h260l-101 -819h-139z" />
<glyph unicode="&#xba;" horiz-adv-x="696" d="M430 836q-131 0 -216 75.5t-85 192.5t87 195.5t218 78.5q127 0 209 -74.5t82 -189.5q0 -119 -85 -198.5t-210 -79.5zM428 958q66 0 106.5 44.5t40.5 113.5q0 61 -40.5 100t-104.5 39q-66 0 -108.5 -42t-42.5 -105q0 -66 41.5 -108t107.5 -42z" />
<glyph unicode="&#xbb;" horiz-adv-x="823" d="M336 115l264 321l-186 307l104 64l232 -377l-322 -395zM39 115l266 321l-188 303l104 68l234 -375l-324 -397z" />
<glyph unicode="&#xbc;" horiz-adv-x="1820" d="M408 16l972 1391l84 -57l-972 -1391zM315 547l86 694h-170l64 125h260l-100 -819h-140zM1073 150l635 774l-80 -658h78l-14 -116h-78l-21 -150h-139l21 150h-402zM1315 266h174l31 256z" />
<glyph unicode="&#xbd;" horiz-adv-x="1820" d="M408 16l972 1391l84 -57l-972 -1391zM315 547l86 694h-170l64 125h260l-100 -819h-140zM1090 0l346 365q104 111 125.5 143.5t21.5 77.5q0 57 -36 90t-97 33q-72 0 -105.5 -39t-39.5 -127h-131q6 127 51 188q72 100 229 100q119 0 191.5 -66.5t72.5 -174.5 q0 -72 -28.5 -123t-126.5 -152l-185 -190h295l-14 -125h-569z" />
<glyph unicode="&#xbe;" horiz-adv-x="1820" d="M410 16l972 1391l82 -57l-972 -1391zM379 532q-117 0 -184.5 58.5t-79.5 169.5h129q18 -106 137 -107q66 0 106.5 38t40.5 97q0 121 -172 121l15 121q14 -2 39 -2q59 0 93 34t34 95q0 47 -29 73.5t-80 26.5q-57 0 -85 -30.5t-32 -100.5h-125q12 252 256 252 q104 0 167 -58t63 -155q0 -139 -125 -194q117 -47 117 -187q0 -113 -79 -182.5t-206 -69.5zM1073 150l635 774l-80 -658h78l-14 -116h-78l-21 -150h-139l21 150h-402zM1317 266h172l31 256z" />
<glyph unicode="&#xbf;" horiz-adv-x="878" d="M496 834q-49 0 -84 35.5t-35 85t33.5 83t81.5 33.5q53 0 87.5 -33.5t34.5 -85t-33.5 -85t-84.5 -33.5zM51 -49q0 104 64 180q53 61 182 111q133 51 183 96t50 115q0 53 -33.5 86.5t-88.5 33.5q-106 0 -117 -139h-185q10 125 64 193q86 109 240 108q133 0 222 -82t89 -207 q0 -115 -76 -202q-68 -78 -219 -135q-113 -45 -149.5 -77t-36.5 -83q0 -53 37.5 -91t95.5 -38q86 0 127 78q23 45 22 129h174q0 -158 -61 -242q-92 -121 -266 -121q-143 0 -230.5 79t-87.5 208z" />
<glyph unicode="&#xc0;" horiz-adv-x="1277" d="M737 1503l-221 246l154 96l174 -278zM-2 0l756 1462l471 -1462h-211l-99 322h-530l-166 -322h-221zM473 496h385l-147 485z" />
<glyph unicode="&#xc1;" horiz-adv-x="1277" d="M793 1503l-107 64l242 278l153 -96zM-2 0l756 1462l471 -1462h-211l-99 322h-530l-166 -322h-221zM473 496h385l-147 485z" />
<glyph unicode="&#xc2;" horiz-adv-x="1277" d="M565 1489l-88 94l322 248l227 -248l-108 -90l-140 152zM-2 0l756 1462l471 -1462h-211l-99 322h-530l-166 -322h-221zM473 496h385l-147 485z" />
<glyph unicode="&#xc3;" horiz-adv-x="1277" d="M580 1522l-103 80q68 90 109 122.5t88 32.5t129 -51q68 -39 102 -39q59 0 94 92l103 -76q-82 -162 -197 -161q-55 0 -160 57q-53 29 -73 29q-35 0 -92 -86zM-2 0l756 1462l471 -1462h-211l-99 322h-530l-166 -322h-221zM473 496h385l-147 485z" />
<glyph unicode="&#xc4;" horiz-adv-x="1277" d="M952 1530q-45 0 -78.5 33.5t-33.5 81.5q0 45 32.5 77.5t79.5 32.5t80 -33.5t33 -81.5q0 -45 -33 -77.5t-80 -32.5zM623 1530q-47 0 -81 32.5t-34 79.5q0 49 31.5 80t83.5 31q47 0 77.5 -32.5t30.5 -84.5q0 -45 -31.5 -75.5t-76.5 -30.5zM-2 0l756 1462l471 -1462h-211 l-99 322h-530l-166 -322h-221zM473 496h385l-147 485z" />
<glyph unicode="&#xc5;" horiz-adv-x="1277" d="M780 1489q-82 0 -139 57.5t-57 139.5q0 80 57 137t137 57q82 0 139.5 -57.5t57.5 -139.5q0 -80 -57.5 -137t-137.5 -57zM780 1604q33 0 56.5 24.5t23.5 57t-23.5 56t-58.5 23.5q-33 0 -56.5 -23.5t-23.5 -55.5q0 -35 23.5 -58.5t58.5 -23.5zM-2 0l756 1462l471 -1462 h-211l-99 322h-530l-166 -322h-221zM473 496h385l-147 485z" />
<glyph unicode="&#xc6;" horiz-adv-x="1921" d="M-16 0l794 1366h629l55 -188h-567l119 -359h569l55 -174h-567l150 -457h573l55 -188h-776l-106 336h-566l-194 -336h-223zM504 510h407l-145 463z" />
<glyph unicode="&#xc7;" horiz-adv-x="1249" d="M119 659q0 315 192.5 524.5t485.5 209.5q125 0 231.5 -34t228.5 -116l-26 -221q-178 180 -424 180q-217 0 -351 -153.5t-134 -397.5q0 -229 130 -358t361 -129q197 0 346 119l-31 -240q-193 -70 -350 -70q-297 0 -478 189.5t-181 496.5zM442 -373l183 277l172 -90 l-244 -250z" />
<glyph unicode="&#xc8;" horiz-adv-x="962" d="M641 1489l-221 246l153 96l175 -279zM106 0l168 1366h703l-23 -188h-501l-43 -355h501l-22 -174h-500l-57 -461h502l-25 -188h-703z" />
<glyph unicode="&#xc9;" horiz-adv-x="962" d="M662 1489l-107 63l242 279l153 -96zM106 0l168 1366h703l-23 -188h-501l-43 -355h501l-22 -174h-500l-57 -461h502l-25 -188h-703z" />
<glyph unicode="&#xca;" horiz-adv-x="962" d="M479 1489l-88 94l322 248l227 -248l-109 -90l-139 152zM106 0l168 1366h703l-23 -188h-501l-43 -355h501l-22 -174h-500l-57 -461h502l-25 -188h-703z" />
<glyph unicode="&#xcb;" horiz-adv-x="962" d="M838 1530q-45 0 -79 33.5t-34 81.5q0 45 33 77.5t80 32.5t79.5 -33.5t32.5 -81.5q0 -45 -32.5 -77.5t-79.5 -32.5zM508 1530q-47 0 -81 32.5t-34 79.5q0 49 32 80t83 31q47 0 77.5 -32.5t30.5 -84.5q0 -45 -31.5 -75.5t-76.5 -30.5zM106 0l168 1366h703l-23 -188h-501 l-43 -355h501l-22 -174h-500l-57 -461h502l-25 -188h-703z" />
<glyph unicode="&#xcc;" horiz-adv-x="530" d="M375 1489l-207 246l154 96l159 -279zM106 0l168 1366h203l-168 -1366h-203z" />
<glyph unicode="&#xcd;" horiz-adv-x="530" d="M424 1489l-107 63l215 279l154 -96zM106 0l168 1366h203l-168 -1366h-203z" />
<glyph unicode="&#xce;" horiz-adv-x="530" d="M213 1489l-88 94l307 248l215 -248l-108 -90l-125 152zM106 0l168 1366h203l-168 -1366h-203z" />
<glyph unicode="&#xcf;" horiz-adv-x="530" d="M557 1530q-45 0 -79 33.5t-34 81.5q0 45 33 77.5t80 32.5t80 -33.5t33 -81.5q0 -45 -33 -77.5t-80 -32.5zM254 1530q-47 0 -81 32.5t-34 79.5q0 49 32 80t83 31q47 0 77.5 -32.5t30.5 -84.5q0 -45 -31.5 -75.5t-76.5 -30.5zM106 0l168 1366h203l-168 -1366h-203z" />
<glyph unicode="&#xd0;" horiz-adv-x="1296" d="M106 0l82 659h-122l20 164h123l67 543h275q158 0 242 -15.5t157 -58.5q133 -76 210 -230.5t77 -344.5q0 -223 -102.5 -403.5t-272.5 -256.5q-125 -57 -409 -57h-347zM334 188h153q156 0 243 27t153 94q152 158 151 416q0 154 -61.5 264.5t-169.5 155.5q-76 33 -236 33 h-112l-43 -355h313l-20 -164h-314z" />
<glyph unicode="&#xd1;" horiz-adv-x="1488" d="M684 1522l-102 80q68 90 108.5 122.5t87.5 32.5t129 -51q68 -39 103 -39q59 0 94 92l102 -76q-80 -162 -196 -161q-55 0 -160 57q-53 29 -74 29q-35 0 -92 -86zM106 0l179 1440l827 -1057l121 983h203l-181 -1460l-827 1059l-119 -965h-203z" />
<glyph unicode="&#xd2;" horiz-adv-x="1605" d="M920 1489l-222 246l154 96l174 -279zM119 678q0 309 205.5 512t519.5 203q315 0 507.5 -187.5t192.5 -494.5q0 -317 -208 -527.5t-523 -210.5q-307 0 -500.5 197t-193.5 508zM322 676q0 -221 140 -366.5t355 -145.5q225 0 373.5 155.5t148.5 391.5q0 225 -133 358 t-356 133q-225 0 -376.5 -150.5t-151.5 -375.5z" />
<glyph unicode="&#xd3;" horiz-adv-x="1605" d="M948 1489l-106 63l241 279l154 -96zM119 678q0 309 205.5 512t519.5 203q315 0 507.5 -187.5t192.5 -494.5q0 -317 -208 -527.5t-523 -210.5q-307 0 -500.5 197t-193.5 508zM322 676q0 -221 140 -366.5t355 -145.5q225 0 373.5 155.5t148.5 391.5q0 225 -133 358 t-356 133q-225 0 -376.5 -150.5t-151.5 -375.5z" />
<glyph unicode="&#xd4;" horiz-adv-x="1605" d="M764 1489l-88 94l321 248l228 -248l-109 -90l-139 152zM119 678q0 309 205.5 512t519.5 203q315 0 507.5 -187.5t192.5 -494.5q0 -317 -208 -527.5t-523 -210.5q-307 0 -500.5 197t-193.5 508zM322 676q0 -221 140 -366.5t355 -145.5q225 0 373.5 155.5t148.5 391.5 q0 225 -133 358t-356 133q-225 0 -376.5 -150.5t-151.5 -375.5z" />
<glyph unicode="&#xd5;" horiz-adv-x="1605" d="M758 1522l-103 80q68 90 109 122.5t88 32.5t129 -51q68 -39 102 -39q59 0 95 92l102 -76q-80 -162 -197 -161q-55 0 -159 57q-53 29 -74 29q-35 0 -92 -86zM119 678q0 309 205.5 512t519.5 203q315 0 507.5 -187.5t192.5 -494.5q0 -317 -208 -527.5t-523 -210.5 q-307 0 -500.5 197t-193.5 508zM322 676q0 -221 140 -366.5t355 -145.5q225 0 373.5 155.5t148.5 391.5q0 225 -133 358t-356 133q-225 0 -376.5 -150.5t-151.5 -375.5z" />
<glyph unicode="&#xd6;" horiz-adv-x="1605" d="M1126 1530q-45 0 -78.5 33.5t-33.5 81.5q0 45 32.5 77.5t80 32.5t80 -33.5t32.5 -81.5q0 -45 -33 -77.5t-80 -32.5zM797 1530q-47 0 -81 32.5t-34 79.5q0 49 31.5 80t83.5 31q47 0 77.5 -32.5t30.5 -84.5q0 -45 -31.5 -75.5t-76.5 -30.5zM119 678q0 309 205.5 512 t519.5 203q315 0 507.5 -187.5t192.5 -494.5q0 -317 -208 -527.5t-523 -210.5q-307 0 -500.5 197t-193.5 508zM322 676q0 -221 140 -366.5t355 -145.5q225 0 373.5 155.5t148.5 391.5q0 225 -133 358t-356 133q-225 0 -376.5 -150.5t-151.5 -375.5z" />
<glyph unicode="&#xd7;" d="M322 283l-123 120l297 299l-299 299l110 107l295 -297l295 299l123 -121l-297 -299l297 -297l-111 -104l-293 293z" />
<glyph unicode="&#xd8;" horiz-adv-x="1605" d="M70 109l166 149q-68 129 -92.5 217t-24.5 201q0 311 205.5 514t523.5 203q139 0 247.5 -36t229.5 -124l170 147l98 -108l-172 -154q123 -156 123 -403q0 -322 -207 -532t-524 -210q-143 0 -252.5 40t-234.5 139l-166 -150zM393 399l778 697q-115 106 -323 106 q-225 0 -375.5 -151.5t-150.5 -376.5q-1 -121 71 -275zM483 289q139 -125 338 -125q223 0 371.5 156.5t148.5 392.5q0 164 -71 270z" />
<glyph unicode="&#xd9;" horiz-adv-x="1347" d="M795 1489l-222 246l154 96l174 -279zM168 422q0 82 12 180l94 764h201l-96 -791q-8 -57 -8 -118q0 -137 75.5 -215t208.5 -78q184 0 271 153q47 84 69 269l97 780h202l-100 -809q-35 -270 -125 -391q-147 -193 -410 -193q-211 0 -351 128t-140 321z" />
<glyph unicode="&#xda;" horiz-adv-x="1347" d="M811 1489l-106 63l241 279l154 -96zM168 422q0 82 12 180l94 764h201l-96 -791q-8 -57 -8 -118q0 -137 75.5 -215t208.5 -78q184 0 271 153q47 84 69 269l97 780h202l-100 -809q-35 -270 -125 -391q-147 -193 -410 -193q-211 0 -351 128t-140 321z" />
<glyph unicode="&#xdb;" horiz-adv-x="1347" d="M633 1489l-88 94l321 248l228 -248l-109 -90l-139 152zM168 422q0 82 12 180l94 764h201l-96 -791q-8 -57 -8 -118q0 -137 75.5 -215t208.5 -78q184 0 271 153q47 84 69 269l97 780h202l-100 -809q-35 -270 -125 -391q-147 -193 -410 -193q-211 0 -351 128t-140 321z" />
<glyph unicode="&#xdc;" horiz-adv-x="1347" d="M987 1530q-45 0 -79 33.5t-34 81.5q0 45 33 77.5t80 32.5t80 -33.5t33 -81.5q0 -45 -33 -77.5t-80 -32.5zM657 1530q-47 0 -80.5 32.5t-33.5 79.5q0 49 31.5 80t82.5 31q47 0 78 -32.5t31 -84.5q0 -45 -32 -75.5t-77 -30.5zM168 422q0 82 12 180l94 764h201l-96 -791 q-8 -57 -8 -118q0 -137 75.5 -215t208.5 -78q184 0 271 153q47 84 69 269l97 780h202l-100 -809q-35 -270 -125 -391q-147 -193 -410 -193q-211 0 -351 128t-140 321z" />
<glyph unicode="&#xdd;" horiz-adv-x="1056" d="M647 1489l-106 63l241 279l154 -96zM369 0l77 625l-354 741h217l252 -543l359 543h233l-506 -754l-76 -612h-202z" />
<glyph unicode="&#xde;" horiz-adv-x="1009" d="M106 0l168 1366h203l-24 -192h75q182 0 277 -60q78 -49 122 -137t44 -193q0 -170 -107 -286q-121 -135 -360 -136h-150l-45 -362h-203zM375 541h133q129 0 190 63q70 70 70 187q0 111 -86 163q-51 31 -166 31h-86z" />
<glyph unicode="&#xdf;" horiz-adv-x="1062" d="M92 0l82 651h-94l22 183h93l36 290q25 193 93 275q102 119 284 119q168 0 269.5 -95.5t101.5 -253.5q0 -225 -211 -338q102 -53 150.5 -136t48.5 -208q0 -236 -154 -385q-113 -111 -307 -110q-47 0 -121 8l23 170q45 -14 90 -14q125 0 198.5 93t73.5 249q0 178 -145 233 q-20 6 -75.5 13.5t-68.5 5.5h-4l21 168q123 0 172 28q53 31 88 97.5t35 138.5q0 80 -47.5 126t-129.5 46q-117 0 -159 -103q-20 -45 -35 -159l-133 -1092h-197z" />
<glyph unicode="&#xe0;" horiz-adv-x="1089" d="M612 965l-217 254l144 96l168 -289zM193 84q-115 113 -115 299q0 207 120.5 339t309.5 132q90 0 153.5 -29.5t126.5 -99.5l15 109h194l-102 -834h-195l11 90q-70 -61 -127.5 -85.5t-130.5 -24.5q-151 0 -260 104zM274 393q0 -111 62.5 -180.5t159.5 -69.5q109 0 186.5 88 t77.5 209q0 111 -63.5 180.5t-164.5 69.5q-109 0 -183.5 -86t-74.5 -211z" />
<glyph unicode="&#xe1;" horiz-adv-x="1089" d="M631 965l-101 59l238 291l145 -92zM193 84q-115 113 -115 299q0 207 120.5 339t309.5 132q90 0 153.5 -29.5t126.5 -99.5l15 109h194l-102 -834h-195l11 90q-70 -61 -127.5 -85.5t-130.5 -24.5q-151 0 -260 104zM274 393q0 -111 62.5 -180.5t159.5 -69.5q109 0 186.5 88 t77.5 209q0 111 -63.5 180.5t-164.5 69.5q-109 0 -183.5 -86t-74.5 -211z" />
<glyph unicode="&#xe2;" horiz-adv-x="1089" d="M451 965l-82 90l295 260l206 -262l-88 -84l-139 166zM193 84q-115 113 -115 299q0 207 120.5 339t309.5 132q90 0 153.5 -29.5t126.5 -99.5l15 109h194l-102 -834h-195l11 90q-70 -61 -127.5 -85.5t-130.5 -24.5q-151 0 -260 104zM274 393q0 -111 62.5 -180.5 t159.5 -69.5q109 0 186.5 88t77.5 209q0 111 -63.5 180.5t-164.5 69.5q-109 0 -183.5 -86t-74.5 -211z" />
<glyph unicode="&#xe3;" horiz-adv-x="1089" d="M459 1024l-101 70q53 84 95.5 119.5t91.5 35.5q39 0 125 -49q68 -37 88 -37q45 0 88 88l102 -69q-84 -160 -190 -160q-49 0 -185 80q-10 8 -28 8q-20 0 -33.5 -12.5t-38.5 -53.5zM193 84q-115 113 -115 299q0 207 120.5 339t309.5 132q90 0 153.5 -29.5t126.5 -99.5 l15 109h194l-102 -834h-195l11 90q-70 -61 -127.5 -85.5t-130.5 -24.5q-151 0 -260 104zM274 393q0 -111 62.5 -180.5t159.5 -69.5q109 0 186.5 88t77.5 209q0 111 -63.5 180.5t-164.5 69.5q-109 0 -183.5 -86t-74.5 -211z" />
<glyph unicode="&#xe4;" horiz-adv-x="1089" d="M807 1016q-43 0 -75 31.5t-32 76.5q0 43 31 74t74 31q45 0 76.5 -33t31.5 -76t-31.5 -73.5t-74.5 -30.5zM489 1016q-43 0 -74.5 31.5t-31.5 76.5q0 43 30.5 74t73.5 31q45 0 77 -33t32 -76t-32 -73.5t-75 -30.5zM193 84q-115 113 -115 299q0 207 120.5 339t309.5 132 q90 0 153.5 -29.5t126.5 -99.5l15 109h194l-102 -834h-195l11 90q-70 -61 -127.5 -85.5t-130.5 -24.5q-151 0 -260 104zM274 393q0 -111 62.5 -180.5t159.5 -69.5q109 0 186.5 88t77.5 209q0 111 -63.5 180.5t-164.5 69.5q-109 0 -183.5 -86t-74.5 -211z" />
<glyph unicode="&#xe5;" horiz-adv-x="1089" d="M602 942q-82 0 -139 57.5t-57 139.5q0 80 57 137t137 57q84 0 140.5 -56t56.5 -140q0 -80 -57.5 -137.5t-137.5 -57.5zM600 1055q35 0 59.5 25.5t24.5 58.5q0 35 -24.5 58.5t-59.5 23.5t-59.5 -23.5t-24.5 -58.5q0 -33 24.5 -58.5t59.5 -25.5zM193 84q-115 113 -115 299 q0 207 120.5 339t309.5 132q90 0 153.5 -29.5t126.5 -99.5l15 109h194l-102 -834h-195l11 90q-70 -61 -127.5 -85.5t-130.5 -24.5q-151 0 -260 104zM274 393q0 -111 62.5 -180.5t159.5 -69.5q109 0 186.5 88t77.5 209q0 111 -63.5 180.5t-164.5 69.5q-109 0 -183.5 -86 t-74.5 -211z" />
<glyph unicode="&#xe6;" horiz-adv-x="1589" d="M53 266q0 121 93.5 198t238.5 77q139 0 264 -92q10 98 10 122q0 59 -47 92t-131 33q-88 0 -223 -45l23 172q141 37 229 37q203 0 295 -131q119 131 291 131q178 0 291.5 -121t113.5 -311q0 -41 -2 -70h-665q2 -100 69.5 -160.5t177.5 -60.5q129 0 219 109l132 -94 q-129 -178 -367 -179q-219 0 -326 158q-72 -86 -145.5 -122t-175.5 -36q-154 0 -259.5 84t-105.5 209zM848 502h459q-8 94 -64.5 144t-152.5 50q-98 0 -155.5 -46t-86.5 -148zM250 262q0 -53 52 -89t130 -36q84 0 138.5 34t54.5 85q0 53 -55.5 87t-145.5 34q-78 0 -126 -32 t-48 -83z" />
<glyph unicode="&#xe7;" horiz-adv-x="829" d="M80 403q0 195 124 326t306 131q152 0 287 -106l-23 -199q-59 76 -115.5 108.5t-128.5 32.5q-111 0 -182.5 -82t-71.5 -211q0 -119 68 -192.5t176 -73.5q102 0 213 88l-24 -205q-121 -47 -217 -47q-182 0 -297 120t-115 310zM373 -96l164 -86l-238 -244l-104 59z" />
<glyph unicode="&#xe8;" horiz-adv-x="1015" d="M571 965l-217 254l144 96l168 -289zM80 393q0 201 127 334t317 133q186 0 297 -121t105 -323l-2 -70h-645q4 -96 65.5 -152.5t163.5 -56.5q137 0 209 103l145 -82q-74 -100 -155.5 -142.5t-202.5 -42.5q-193 0 -308.5 115t-115.5 305zM291 504h436q-31 193 -213 192 q-174 1 -223 -192z" />
<glyph unicode="&#xe9;" horiz-adv-x="1015" d="M582 965l-101 59l238 291l145 -92zM80 393q0 201 127 334t317 133q186 0 297 -121t105 -323l-2 -70h-645q4 -96 65.5 -152.5t163.5 -56.5q137 0 209 103l145 -82q-74 -100 -155.5 -142.5t-202.5 -42.5q-193 0 -308.5 115t-115.5 305zM291 504h436q-31 193 -213 192 q-174 1 -223 -192z" />
<glyph unicode="&#xea;" horiz-adv-x="1015" d="M395 965l-82 90l295 260l207 -262l-88 -84l-139 166zM80 393q0 201 127 334t317 133q186 0 297 -121t105 -323l-2 -70h-645q4 -96 65.5 -152.5t163.5 -56.5q137 0 209 103l145 -82q-74 -100 -155.5 -142.5t-202.5 -42.5q-193 0 -308.5 115t-115.5 305zM291 504h436 q-31 193 -213 192q-174 1 -223 -192z" />
<glyph unicode="&#xeb;" horiz-adv-x="1015" d="M758 1016q-43 0 -75 31.5t-32 76.5q0 43 31 74t74 31q45 0 76.5 -33t31.5 -76t-31.5 -73.5t-74.5 -30.5zM440 1016q-43 0 -74.5 31.5t-31.5 76.5q0 43 30.5 74t73.5 31q45 0 77 -33t32 -76t-32 -73.5t-75 -30.5zM80 393q0 201 127 334t317 133q186 0 297 -121t105 -323 l-2 -70h-645q4 -96 65.5 -152.5t163.5 -56.5q137 0 209 103l145 -82q-74 -100 -155.5 -142.5t-202.5 -42.5q-193 0 -308.5 115t-115.5 305zM291 504h436q-31 193 -213 192q-174 1 -223 -192z" />
<glyph unicode="&#xec;" horiz-adv-x="468" d="M285 965l-203 254l143 96l156 -289zM80 0l102 834h195l-103 -834h-194z" />
<glyph unicode="&#xed;" horiz-adv-x="468" d="M317 965l-98 59l217 291l146 -92zM80 0l102 834h195l-103 -834h-194z" />
<glyph unicode="&#xee;" horiz-adv-x="468" d="M135 965l-82 90l281 260l194 -262l-88 -84l-125 166zM78 0l102 834h197l-103 -834h-196z" />
<glyph unicode="&#xef;" horiz-adv-x="468" d="M444 1016q-43 0 -74.5 31.5t-31.5 76.5q0 43 30.5 74t73.5 31q45 0 77 -33t32 -76t-32 -73.5t-75 -30.5zM164 1016q-43 0 -75 31.5t-32 76.5q0 43 31 74t74 31q45 0 76.5 -33t31.5 -76t-31.5 -73.5t-74.5 -30.5zM80 0l102 834h195l-103 -834h-194z" />
<glyph unicode="&#xf0;" horiz-adv-x="1089" d="M82 410q0 190 130 320t318 130q82 0 140.5 -25.5t128.5 -91.5q-59 279 -215 431l-205 -105l-107 102l191 103q-86 61 -213 115l86 112q139 -35 293 -143l200 106l111 -110l-205 -103q266 -289 266 -727q0 -252 -110 -389q-127 -162 -346 -162q-203 0 -333 122t-130 315z M276 414q0 -123 73 -200t187.5 -77t188.5 84t74 213q0 119 -70 190.5t-182 71.5q-117 0 -194 -79.5t-77 -202.5z" />
<glyph unicode="&#xf1;" horiz-adv-x="997" d="M385 1024l-100 70q53 84 95 119.5t91 35.5q39 0 125 -49q68 -37 88 -37q45 0 88 88l102 -69q-84 -160 -190 -160q-49 0 -184 80q-10 8 -29 8q-20 0 -33.5 -12.5t-38.5 -53.5zM80 0l102 834h195l-8 -78q115 98 233 98q135 0 213 -84q55 -61 55 -170q0 -49 -12 -154 l-55 -446h-195l60 489q8 70 8 89q0 113 -123 112q-84 0 -141 -57q-39 -39 -57.5 -87t-30.5 -145l-50 -401h-194z" />
<glyph unicode="&#xf2;" horiz-adv-x="1089" d="M594 965l-217 254l143 96l168 -289zM82 410q0 193 134 321.5t335 128.5q199 0 323.5 -122t124.5 -314q0 -190 -132 -320.5t-324 -130.5q-201 0 -331 123.5t-130 313.5zM279 414q0 -123 72.5 -200t187 -77t189.5 84t75 213q0 119 -69.5 190.5t-182.5 71.5 q-119 0 -195.5 -79.5t-76.5 -202.5z" />
<glyph unicode="&#xf3;" horiz-adv-x="1089" d="M612 965l-100 59l238 291l145 -92zM82 410q0 193 134 321.5t335 128.5q199 0 323.5 -122t124.5 -314q0 -190 -132 -320.5t-324 -130.5q-201 0 -331 123.5t-130 313.5zM279 414q0 -123 72.5 -200t187 -77t189.5 84t75 213q0 119 -69.5 190.5t-182.5 71.5 q-119 0 -195.5 -79.5t-76.5 -202.5z" />
<glyph unicode="&#xf4;" horiz-adv-x="1089" d="M453 965l-82 90l295 260l206 -262l-88 -84l-139 166zM82 410q0 193 134 321.5t335 128.5q199 0 323.5 -122t124.5 -314q0 -190 -132 -320.5t-324 -130.5q-201 0 -331 123.5t-130 313.5zM279 414q0 -123 72.5 -200t187 -77t189.5 84t75 213q0 119 -69.5 190.5t-182.5 71.5 q-119 0 -195.5 -79.5t-76.5 -202.5z" />
<glyph unicode="&#xf5;" horiz-adv-x="1089" d="M449 1024l-101 70q53 84 95 119.5t92 35.5q39 0 124 -49q68 -37 89 -37q43 0 88 88l102 -69q-84 -160 -190 -160q-49 0 -185 80q-10 8 -28 8q-20 0 -34 -12.5t-38 -53.5zM82 410q0 193 134 321.5t335 128.5q199 0 323.5 -122t124.5 -314q0 -190 -132 -320.5t-324 -130.5 q-201 0 -331 123.5t-130 313.5zM279 414q0 -123 72.5 -200t187 -77t189.5 84t75 213q0 119 -69.5 190.5t-182.5 71.5q-119 0 -195.5 -79.5t-76.5 -202.5z" />
<glyph unicode="&#xf6;" horiz-adv-x="1089" d="M788 1016q-43 0 -74.5 31.5t-31.5 76.5q0 43 30.5 74t73.5 31q45 0 77 -33t32 -76t-32 -73.5t-75 -30.5zM471 1016q-43 0 -74.5 31.5t-31.5 76.5q0 43 30.5 74t73.5 31q45 0 77 -33t32 -76t-32 -73.5t-75 -30.5zM82 410q0 193 134 321.5t335 128.5q199 0 323.5 -122 t124.5 -314q0 -190 -132 -320.5t-324 -130.5q-201 0 -331 123.5t-130 313.5zM279 414q0 -123 72.5 -200t187 -77t189.5 84t75 213q0 119 -69.5 190.5t-182.5 71.5q-119 0 -195.5 -79.5t-76.5 -202.5z" />
<glyph unicode="&#xf7;" d="M612 887q-49 0 -83.5 35.5t-34.5 87.5q0 49 32.5 82.5t81.5 33.5q51 0 88 -35.5t37 -86.5q0 -45 -37 -81t-84 -36zM135 614v164h948v-164h-948zM489 389q0 49 33 83t82 34q51 0 88 -36t37 -87q0 -45 -37 -81t-84 -36q-49 0 -84 36t-35 87z" />
<glyph unicode="&#xf8;" horiz-adv-x="1089" d="M2 47l145 125q-66 119 -65 238q0 195 134 322.5t337 127.5q156 0 289 -90l145 127l86 -100l-141 -117q45 -102 56 -143t11 -109q0 -195 -131 -325t-325 -130q-170 0 -310 103l-147 -127zM297 301l403 348q-55 47 -151 47q-119 0 -194.5 -80.5t-75.5 -205.5q0 -54 18 -109 zM371 195q78 -57 168 -58q119 0 191.5 84t72.5 219q0 57 -25 105z" />
<glyph unicode="&#xf9;" horiz-adv-x="991" d="M555 965l-217 254l143 96l168 -289zM117 272q0 51 8 111l55 451h197l-58 -467q-8 -70 -8 -91q0 -133 156 -133q82 0 122 44t54 153l62 494h194l-59 -486q-14 -113 -36 -170t-69 -100q-102 -98 -280 -98q-154 0 -246 79.5t-92 212.5z" />
<glyph unicode="&#xfa;" horiz-adv-x="991" d="M573 965l-100 59l238 291l145 -92zM117 272q0 51 8 111l55 451h197l-58 -467q-8 -70 -8 -91q0 -133 156 -133q82 0 122 44t54 153l62 494h194l-59 -486q-14 -113 -36 -170t-69 -100q-102 -98 -280 -98q-154 0 -246 79.5t-92 212.5z" />
<glyph unicode="&#xfb;" horiz-adv-x="991" d="M397 965l-82 90l295 260l207 -262l-88 -84l-139 166zM117 272q0 51 8 111l55 451h197l-58 -467q-8 -70 -8 -91q0 -133 156 -133q82 0 122 44t54 153l62 494h194l-59 -486q-14 -113 -36 -170t-69 -100q-102 -98 -280 -98q-154 0 -246 79.5t-92 212.5z" />
<glyph unicode="&#xfc;" horiz-adv-x="991" d="M741 1016q-43 0 -74.5 31.5t-31.5 76.5q0 43 30.5 74t73.5 31q45 0 77 -33t32 -76t-32 -73.5t-75 -30.5zM424 1016q-43 0 -75 31.5t-32 76.5q0 43 31 74t74 31q45 0 76.5 -33t31.5 -76t-31.5 -73.5t-74.5 -30.5zM117 272q0 51 8 111l55 451h197l-58 -467q-8 -70 -8 -91 q0 -133 156 -133q82 0 122 44t54 153l62 494h194l-59 -486q-14 -113 -36 -170t-69 -100q-102 -98 -280 -98q-154 0 -246 79.5t-92 212.5z" />
<glyph unicode="&#xfd;" horiz-adv-x="954" d="M549 965l-100 59l237 291l145 -92zM344 104l-299 730h209l207 -533l301 533h223l-754 -1311h-223z" />
<glyph unicode="&#xfe;" horiz-adv-x="1110" d="M289 119l-74 -596h-195l242 1970h197l-92 -748q72 59 130 84t136 25q168 0 277.5 -116.5t109.5 -293.5q0 -195 -127 -329.5t-311 -134.5q-92 0 -156.5 30.5t-136.5 108.5zM322 389q0 -109 66.5 -177.5t172.5 -68.5q111 0 186.5 85t75.5 210q0 111 -63.5 181.5 t-161.5 70.5q-119 0 -197.5 -86t-78.5 -215z" />
<glyph unicode="&#xff;" horiz-adv-x="954" d="M717 1016q-43 0 -75 31.5t-32 76.5q0 43 31 74t74 31q45 0 76.5 -33t31.5 -76t-31.5 -73.5t-74.5 -30.5zM399 1016q-43 0 -74.5 31.5t-31.5 76.5q0 43 30.5 74t73.5 31q45 0 77 -33t32 -76t-32 -73.5t-75 -30.5zM344 104l-299 730h209l207 -533l301 533h223l-754 -1311 h-223z" />
<glyph unicode="&#x152;" horiz-adv-x="2150" d="M117 662q0 315 209 523t526 208q174 0 303 -68t244 -217l33 258h725l-23 -188h-524l-43 -359h532l-22 -174h-533l-55 -457h532l-22 -188h-735l22 184q-115 -115 -225.5 -163t-259.5 -48q-295 0 -489.5 196t-194.5 493zM319 657q0 -215 141.5 -354t360.5 -139 q225 0 376 152.5t151 380t-140.5 366.5t-369.5 139q-219 0 -369 -157t-150 -388z" />
<glyph unicode="&#x153;" horiz-adv-x="1773" d="M82 415.5q0 194.5 134 319.5t341 125q119 0 205 -39t162 -127q139 166 350 166q193 0 305.5 -117.5t106.5 -318.5l-3 -72h-663q8 -88 47 -137q27 -35 81 -56.5t112 -21.5q147 0 217 119l147 -92q-74 -100 -160 -145.5t-202 -45.5q-221 0 -355 166q-76 -92 -155.5 -129 t-200.5 -37q-205 0 -337 124t-132 318.5zM1024 496h459q-12 201 -211 200q-201 1 -248 -200zM279 408q0 -117 75.5 -194t192.5 -77q121 0 198.5 80t77.5 205t-73.5 199.5t-194.5 74.5q-119 0 -197.5 -81.5t-78.5 -206.5z" />
<glyph unicode="&#x178;" horiz-adv-x="1056" d="M829 1530q-45 0 -78.5 33.5t-33.5 81.5q0 45 32.5 77.5t80 32.5t80 -33.5t32.5 -81.5q0 -45 -33 -77.5t-80 -32.5zM500 1530q-47 0 -81 32.5t-34 79.5q0 49 32 80t83 31q47 0 77.5 -32.5t30.5 -84.5q0 -45 -31.5 -75.5t-76.5 -30.5zM369 0l77 625l-354 741h217l252 -543 l359 543h233l-506 -754l-76 -612h-202z" />
<glyph unicode="&#x2c6;" horiz-adv-x="1024" d="M414 965l-82 90l295 260l207 -262l-89 -84l-139 166z" />
<glyph unicode="&#x2dc;" horiz-adv-x="1024" d="M401 1024l-100 70q53 84 95 119.5t91 35.5q39 0 125 -49q68 -37 88 -37q45 0 88 88l103 -69q-84 -160 -191 -160q-49 0 -184 80q-10 8 -29 8q-20 0 -33.5 -12.5t-37.5 -53.5z" />
<glyph unicode="&#x2000;" horiz-adv-x="940" />
<glyph unicode="&#x2001;" horiz-adv-x="1880" />
<glyph unicode="&#x2002;" horiz-adv-x="940" />
<glyph unicode="&#x2003;" horiz-adv-x="1880" />
<glyph unicode="&#x2004;" horiz-adv-x="626" />
<glyph unicode="&#x2005;" horiz-adv-x="468" />
<glyph unicode="&#x2006;" horiz-adv-x="313" />
<glyph unicode="&#x2007;" horiz-adv-x="313" />
<glyph unicode="&#x2008;" horiz-adv-x="233" />
<glyph unicode="&#x2009;" horiz-adv-x="374" />
<glyph unicode="&#x200a;" horiz-adv-x="104" />
<glyph unicode="&#x2010;" horiz-adv-x="382" d="M-14 352l18 156h383l-18 -156h-383z" />
<glyph unicode="&#x2011;" horiz-adv-x="382" d="M-14 352l18 156h383l-18 -156h-383z" />
<glyph unicode="&#x2012;" horiz-adv-x="382" d="M-14 352l18 156h383l-18 -156h-383z" />
<glyph unicode="&#x2013;" d="M100 352l19 156h932l-21 -156h-930z" />
<glyph unicode="&#x2014;" horiz-adv-x="1148" d="M-14 352l18 156h1149l-18 -156h-1149z" />
<glyph unicode="&#x2018;" horiz-adv-x="557" d="M303 850l-137 74l280 469l109 -60z" />
<glyph unicode="&#x2019;" horiz-adv-x="557" d="M272 850l-108 57l252 486l137 -76z" />
<glyph unicode="&#x201a;" horiz-adv-x="557" d="M-4 -240l252 486l137 -76l-281 -469z" />
<glyph unicode="&#x201c;" horiz-adv-x="894" d="M504 924l280 469l109 -60l-252 -483zM303 850l-137 74l280 469l109 -60z" />
<glyph unicode="&#x201d;" horiz-adv-x="894" d="M502 907l252 486l137 -76l-281 -467zM272 850l-108 57l252 486l137 -76z" />
<glyph unicode="&#x201e;" horiz-adv-x="894" d="M334 -240l252 486l137 -76l-281 -469zM-4 -240l252 486l137 -76l-281 -469z" />
<glyph unicode="&#x2022;" horiz-adv-x="1366" d="M426 692q0 119 84 202t205 83q113 0 195.5 -84t82.5 -199q0 -119 -83 -201.5t-199.5 -82.5t-200.5 83.5t-84 198.5z" />
<glyph unicode="&#x2026;" horiz-adv-x="1513" d="M1104 102q0 49 32.5 83t82.5 34q51 0 87.5 -36t36.5 -87q0 -45 -36.5 -80.5t-83.5 -35.5q-49 0 -84 35.5t-35 86.5zM596 102q0 49 33 83t82 34q51 0 88 -36t37 -87q0 -45 -37 -80.5t-84 -35.5q-49 0 -84 35.5t-35 86.5zM86 102q0 49 33 83t82 34q51 0 88 -36t37 -87 q0 -45 -37 -80.5t-84 -35.5q-49 0 -84 35.5t-35 86.5z" />
<glyph unicode="&#x202f;" horiz-adv-x="374" />
<glyph unicode="&#x2039;" horiz-adv-x="526" d="M297 55l-234 375l322 395l94 -80l-266 -319l186 -307z" />
<glyph unicode="&#x203a;" horiz-adv-x="526" d="M39 115l264 321l-184 307l102 64l234 -377l-322 -395z" />
<glyph unicode="&#x205f;" horiz-adv-x="468" />
<glyph unicode="&#x20ac;" horiz-adv-x="1597" d="M127 494l72 145h114q-2 14 -2 39q0 39 2 65h-168l72 146h123q68 231 256 367.5t442 136.5q281 0 480 -164l-95 -185q-139 158 -376 158q-168 0 -297 -83t-193 -230h791l-72 -146h-758q-4 -53 -4 -67q0 -23 2 -37h709l-72 -145h-608q57 -160 178 -245t289 -85 q217 0 360 143l-20 -256q-152 -78 -346 -78q-258 0 -436.5 137.5t-237.5 383.5h-205z" />
<glyph unicode="&#x2122;" horiz-adv-x="1556" d="M563 588l293 860l219 -625l373 643l82 -878h-144l-38 448l-306 -520l-178 520l-149 -448h-152zM205 588l80 647h-197l16 131h533l-16 -131h-189l-80 -647h-147z" />
<glyph unicode="&#xe000;" horiz-adv-x="835" d="M0 835h835v-835h-835v835z" />
<glyph unicode="&#xfb01;" horiz-adv-x="966" d="M92 0l80 651h-127l23 183h127l45 372q20 158 86 224q70 66 174 65q70 0 166 -45l-21 -172q-55 45 -102 45q-53 0 -78 -37t-37 -135l-39 -317h178l-22 -183h-178l-80 -651h-195zM831 1126q-43 0 -74.5 32t-31.5 77q0 43 30.5 73.5t73.5 30.5t76 -32.5t33 -75.5t-32 -74 t-75 -31zM578 0l102 834h194l-102 -834h-194z" />
<glyph unicode="&#xfb02;" horiz-adv-x="966" d="M92 0l80 651h-127l23 183h127l45 372q20 158 86 224q70 66 174 65q70 0 166 -45l-21 -172q-55 45 -102 45q-53 0 -78 -37t-37 -135l-39 -317h178l-22 -183h-178l-80 -651h-195zM578 0l182 1493h196l-184 -1493h-194z" />
<glyph unicode="&#xfb03;" horiz-adv-x="1579" d="M1444 1126q-43 0 -75 32t-32 77q0 43 31 73.5t74 30.5t75.5 -32.5t32.5 -75.5t-31.5 -74t-74.5 -31zM1190 0l102 834h195l-103 -834h-194zM647 0l80 651h-127l23 183h127l45 372q20 158 86 224q70 66 174 65q70 0 166 -45l-21 -172q-55 45 -102 45q-53 0 -78 -37 t-37 -135l-39 -317h178l-22 -183h-178l-80 -651h-195zM92 0l80 651h-127l23 183h127l45 372q20 158 86 224q70 66 174 65q70 0 166 -45l-21 -172q-55 45 -102 45q-53 0 -78 -37t-37 -135l-39 -317h178l-22 -183h-178l-80 -651h-195z" />
<glyph unicode="&#xfb04;" horiz-adv-x="1579" d="M1190 0l184 1493h195l-185 -1493h-194zM647 0l80 651h-127l23 183h127l45 372q20 158 86 224q70 66 174 65q70 0 166 -45l-21 -172q-55 45 -102 45q-53 0 -78 -37t-37 -135l-39 -317h178l-22 -183h-178l-80 -651h-195zM92 0l80 651h-127l23 183h127l45 372q20 158 86 224 q70 66 174 65q70 0 166 -45l-21 -172q-55 45 -102 45q-53 0 -78 -37t-37 -135l-39 -317h178l-22 -183h-178l-80 -651h-195z" />
</font>
</defs>
</svg>
